<svg xmlns="http://www.w3.org/2000/svg" viewBox="0 0 1080 1440" width="1080" height="1440"><rect width="1080" height="1440" fill="#1B1010"/>
    <text x="40" y="74" font-family="DejaVu Sans, Helvetica, Arial, sans-serif" font-size="40" font-weight="800"
          fill="#FFFFFF" letter-spacing="-0.5">BRAND</text>
    <text x="40" y="108" font-family="DejaVu Sans, Helvetica, Arial, sans-serif" font-size="26" font-weight="300"
          fill="#A89690" letter-spacing="2">GUIDELINES</text>
    <text x="1040" y="58" font-family="DejaVu Sans Mono, Courier New, monospace" font-size="10" fill="#A89690"
          text-anchor="end" letter-spacing="2">V1.0 — MAY 2026</text>
    <text x="1040" y="76" font-family="DejaVu Sans, Helvetica, Arial, sans-serif" font-size="10" fill="#7A6862"
          text-anchor="end" letter-spacing="1">LAUNCHRISE AI · UK / UAE</text>
    <rect x="40" y="150" width="1000" height="380" rx="12" fill="#241516" stroke="#3A2326" stroke-width="0.5"/><circle cx="63" cy="176" r="3" fill="#D4A574"/><text x="74" y="180" font-family="DejaVu Sans, Helvetica, Arial, sans-serif" font-size="10" font-weight="600" fill="#A89690" letter-spacing="2.4">COMPANY LOGO</text><rect x="60" y="200" width="960" height="160" rx="10" fill="#663333" stroke="#663333" stroke-width="0.5"/>
    <g transform="translate(331.75,237.925) scale(0.765)"><polygon points="50,5 96,90 4,90" fill="#FFFFFF"/><path d="M 25 78 L 50 25 L 75 78 C 67 73 60 76 50 78 C 40 80 33 74 25 78 Z" fill="#663333"/><rect x="14" y="100" width="72" height="6" fill="#D4A574"/></g>
    <line x1="429.5" y1="252.8" x2="429.5"
          y2="307.2" stroke="#FFFFFF" stroke-width="1.275"
          opacity="0.85"/>
    <text x="446.5" y="295.3" font-family="DejaVu Sans, Helvetica, Arial, sans-serif"
          font-size="47.6" font-weight="700" fill="#FFFFFF"
          letter-spacing="-1">Launch</text>
    <text x="642.0" y="295.3" font-family="DejaVu Sans, Helvetica, Arial, sans-serif"
          font-size="47.6" font-weight="400" fill="#D8C5BE"
          letter-spacing="-1" opacity="0.85">Rise</text>
    <circle cx="705.75" cy="265.55"
            r="3.8249999999999997" fill="#D4A574"/>
    <text x="739.75" y="271.5"
          font-family="DejaVu Sans, Helvetica, Arial, sans-serif" font-size="11.9" fill="#D8C5BE"
          opacity="0.6">®</text>
    <rect x="60" y="376" width="312.0" height="134" rx="10" fill="#1A1414" stroke="#1A1414" stroke-width="0.5"/><g transform="translate(149.0,403.8) scale(0.64)"><polygon points="50,5 96,90 4,90" fill="#FFFFFF"/><path d="M 25 78 L 50 25 L 75 78 C 67 73 60 76 50 78 C 40 80 33 74 25 78 Z" fill="#663333"/><rect x="14" y="100" width="72" height="6" fill="#D4A574"/></g><text x="234.0" y="451.0" font-family="DejaVu Sans, Helvetica, Arial, sans-serif" font-size="20" font-weight="700" fill="#FFFFFF">LaunchRise</text><text x="354.0" y="494" font-family="DejaVu Sans Mono, Courier New, monospace" font-size="9" fill="#A89690" text-anchor="end" letter-spacing="1.5">DARK</text><rect x="384.0" y="376" width="312.0" height="134" rx="10" fill="#F4ECD8" stroke="#F4ECD8" stroke-width="0.5"/><g transform="translate(473.0,403.8) scale(0.64)"><polygon points="50,5 96,90 4,90" fill="#663333"/><path d="M 25 78 L 50 25 L 75 78 C 67 73 60 76 50 78 C 40 80 33 74 25 78 Z" fill="#F4ECD8"/><rect x="14" y="100" width="72" height="6" fill="#D4A574"/></g><text x="558.0" y="451.0" font-family="DejaVu Sans, Helvetica, Arial, sans-serif" font-size="20" font-weight="700" fill="#663333">LaunchRise</text><text x="678.0" y="494" font-family="DejaVu Sans Mono, Courier New, monospace" font-size="9" fill="#7A6862" text-anchor="end" letter-spacing="1.5">LIGHT</text><rect x="708.0" y="376" width="312.0" height="134" rx="10" fill="#663333" stroke="#663333" stroke-width="0.5"/><g transform="translate(829.0,400.5) scale(0.7)"><polygon points="50,5 96,90 4,90" fill="#FFFFFF"/><path d="M 25 78 L 50 25 L 75 78 C 67 73 60 76 50 78 C 40 80 33 74 25 78 Z" fill="#663333"/><rect x="14" y="100" width="72" height="6" fill="#D4A574"/></g><text x="1002.0" y="494" font-family="DejaVu Sans Mono, Courier New, monospace" font-size="9" fill="#D4A574" text-anchor="end" letter-spacing="1.5">MARK ONLY</text><rect x="40" y="550" width="480" height="280" rx="12" fill="#241516" stroke="#3A2326" stroke-width="0.5"/><circle cx="63" cy="576" r="3" fill="#D4A574"/><text x="74" y="580" font-family="DejaVu Sans, Helvetica, Arial, sans-serif" font-size="10" font-weight="600" fill="#A89690" letter-spacing="2.4">LOGO CLEARSPACE</text><rect x="170.0" y="655.0" width="220" height="90" fill="none" stroke="#D4A574" stroke-width="1" stroke-dasharray="4 4" opacity="0.7"/><g transform="translate(178.0,664.8) scale(0.64)"><polygon points="50,5 96,90 4,90" fill="#FFFFFF"/><path d="M 25 78 L 50 25 L 75 78 C 67 73 60 76 50 78 C 40 80 33 74 25 78 Z" fill="#663333"/><rect x="14" y="100" width="72" height="6" fill="#D4A574"/></g><line x1="250.0" y1="678.0" x2="250.0" y2="722.0" stroke="#FFFFFF" stroke-width="1" opacity="0.85"/><text x="264.0" y="709.0" font-family="DejaVu Sans, Helvetica, Arial, sans-serif" font-size="22" font-weight="700" fill="#FFFFFF" letter-spacing="-0.5">LaunchRise</text><text x="164.0" y="649.0" font-family="DejaVu Sans Mono, Courier New, monospace" font-size="14" fill="#D4A574" font-weight="700">×</text><text x="404.0" y="649.0" font-family="DejaVu Sans Mono, Courier New, monospace" font-size="14" fill="#D4A574" font-weight="700">×</text><text x="164.0" y="763.0" font-family="DejaVu Sans Mono, Courier New, monospace" font-size="14" fill="#D4A574" font-weight="700">×</text><text x="404.0" y="763.0" font-family="DejaVu Sans Mono, Courier New, monospace" font-size="14" fill="#D4A574" font-weight="700">×</text><text x="280.0" y="808" font-family="DejaVu Sans, Helvetica, Arial, sans-serif" font-size="11" fill="#A89690" text-anchor="middle">Minimum clearspace = cap height of "L" on all sides</text><rect x="540" y="550" width="500" height="280" rx="12" fill="#241516" stroke="#3A2326" stroke-width="0.5"/><circle cx="563" cy="576" r="3" fill="#D4A574"/><text x="574" y="580" font-family="DejaVu Sans, Helvetica, Arial, sans-serif" font-size="10" font-weight="600" fill="#A89690" letter-spacing="2.4">BRAND PALETTE</text><rect x="560.0" y="606.0" width="142.66666666666666" height="94.0" rx="8" fill="#663333" stroke="#3A2326" stroke-width="0.5"/><text x="574.0" y="670.0" font-family="DejaVu Sans, Helvetica, Arial, sans-serif" font-size="13" font-weight="700" fill="#FFFFFF">Burgundy</text><text x="574.0" y="686.0" font-family="DejaVu Sans Mono, Courier New, monospace" font-size="10" fill="#FFFFFF" opacity="0.75">#663333</text><text x="688.6666666666666" y="628.0" font-family="DejaVu Sans, Helvetica, Arial, sans-serif" font-size="9" fill="#FFFFFF" opacity="0.65" text-anchor="end" letter-spacing="1.2">PRIMARY</text><rect x="718.6666666666666" y="606.0" width="142.66666666666666" height="94.0" rx="8" fill="#D4A574" stroke="#3A2326" stroke-width="0.5"/><text x="732.6666666666666" y="670.0" font-family="DejaVu Sans, Helvetica, Arial, sans-serif" font-size="13" font-weight="700" fill="#1A1414">Sand</text><text x="732.6666666666666" y="686.0" font-family="DejaVu Sans Mono, Courier New, monospace" font-size="10" fill="#1A1414" opacity="0.75">#D4A574</text><text x="847.3333333333333" y="628.0" font-family="DejaVu Sans, Helvetica, Arial, sans-serif" font-size="9" fill="#1A1414" opacity="0.65" text-anchor="end" letter-spacing="1.2">ACCENT</text><rect x="877.3333333333333" y="606.0" width="142.66666666666666" height="94.0" rx="8" fill="#FFFFFF" stroke="#3A2326" stroke-width="0.5"/><text x="891.3333333333333" y="670.0" font-family="DejaVu Sans, Helvetica, Arial, sans-serif" font-size="13" font-weight="700" fill="#1A1414">White</text><text x="891.3333333333333" y="686.0" font-family="DejaVu Sans Mono, Courier New, monospace" font-size="10" fill="#1A1414" opacity="0.75">#FFFFFF</text><text x="1005.9999999999999" y="628.0" font-family="DejaVu Sans, Helvetica, Arial, sans-serif" font-size="9" fill="#1A1414" opacity="0.65" text-anchor="end" letter-spacing="1.2">PRIMARY TYPE</text><rect x="560.0" y="716.0" width="142.66666666666666" height="94.0" rx="8" fill="#F4ECD8" stroke="#3A2326" stroke-width="0.5"/><text x="574.0" y="780.0" font-family="DejaVu Sans, Helvetica, Arial, sans-serif" font-size="13" font-weight="700" fill="#1A1414">Cream</text><text x="574.0" y="796.0" font-family="DejaVu Sans Mono, Courier New, monospace" font-size="10" fill="#1A1414" opacity="0.75">#F4ECD8</text><text x="688.6666666666666" y="738.0" font-family="DejaVu Sans, Helvetica, Arial, sans-serif" font-size="9" fill="#1A1414" opacity="0.65" text-anchor="end" letter-spacing="1.2">PAPER / LIGHT</text><rect x="718.6666666666666" y="716.0" width="142.66666666666666" height="94.0" rx="8" fill="#1A1414" stroke="#3A2326" stroke-width="0.5"/><text x="732.6666666666666" y="780.0" font-family="DejaVu Sans, Helvetica, Arial, sans-serif" font-size="13" font-weight="700" fill="#FFFFFF">Charcoal</text><text x="732.6666666666666" y="796.0" font-family="DejaVu Sans Mono, Courier New, monospace" font-size="10" fill="#FFFFFF" opacity="0.75">#1A1414</text><text x="847.3333333333333" y="738.0" font-family="DejaVu Sans, Helvetica, Arial, sans-serif" font-size="9" fill="#FFFFFF" opacity="0.65" text-anchor="end" letter-spacing="1.2">DARK ANCHOR</text><rect x="877.3333333333333" y="716.0" width="142.66666666666666" height="94.0" rx="8" fill="#E8DCC4" stroke="#3A2326" stroke-width="0.5"/><text x="891.3333333333333" y="780.0" font-family="DejaVu Sans, Helvetica, Arial, sans-serif" font-size="13" font-weight="700" fill="#1A1414">Bone</text><text x="891.3333333333333" y="796.0" font-family="DejaVu Sans Mono, Courier New, monospace" font-size="10" fill="#1A1414" opacity="0.75">#E8DCC4</text><text x="1005.9999999999999" y="738.0" font-family="DejaVu Sans, Helvetica, Arial, sans-serif" font-size="9" fill="#1A1414" opacity="0.65" text-anchor="end" letter-spacing="1.2">SOFT SURFACE</text><rect x="40" y="850" width="1000" height="230" rx="12" fill="#241516" stroke="#3A2326" stroke-width="0.5"/><circle cx="63" cy="876" r="3" fill="#D4A574"/><text x="74" y="880" font-family="DejaVu Sans, Helvetica, Arial, sans-serif" font-size="10" font-weight="600" fill="#A89690" letter-spacing="2.4">TYPOGRAPHY</text><text x="64" y="930" font-family="DejaVu Sans, Helvetica, Arial, sans-serif" font-size="56" font-weight="700" fill="#FFFFFF" letter-spacing="-1.5">Ab</text><text x="64" y="962" font-family="DejaVu Sans, Helvetica, Arial, sans-serif" font-size="16" font-weight="700" fill="#D4A574">Plus Jakarta Sans</text><text x="64" y="980" font-family="DejaVu Sans Mono, Courier New, monospace" font-size="9" fill="#A89690" letter-spacing="1.5">EXTRABOLD 800 — PRIMARY</text><text x="64" y="1012" font-family="DejaVu Sans, Helvetica, Arial, sans-serif" font-size="12" fill="#FFFFFF" opacity="0.9">ABCDEFGHIJKLMNOPQRSTUVWXYZ</text><text x="64" y="1030" font-family="DejaVu Sans, Helvetica, Arial, sans-serif" font-size="12" fill="#FFFFFF" opacity="0.9">abcdefghijklmnopqrstuvwxyz</text><text x="64" y="1048" font-family="DejaVu Sans, Helvetica, Arial, sans-serif" font-size="12" fill="#FFFFFF" opacity="0.9">0123456789</text><text x="552.0" y="930" font-family="DejaVu Sans Mono, Courier New, monospace" font-size="56" font-weight="700" fill="#FFFFFF" letter-spacing="-1.5">Ab</text><text x="552.0" y="962" font-family="DejaVu Sans Mono, Courier New, monospace" font-size="16" font-weight="700" fill="#D4A574">Space Mono</text><text x="552.0" y="980" font-family="DejaVu Sans Mono, Courier New, monospace" font-size="9" fill="#A89690" letter-spacing="1.5">BOLD 700 — MONOSPACE</text><text x="552.0" y="1012" font-family="DejaVu Sans Mono, Courier New, monospace" font-size="11" fill="#FFFFFF" opacity="0.9">ABCDEFGHIJKLMNOPQRSTUVWXYZ</text><text x="552.0" y="1030" font-family="DejaVu Sans Mono, Courier New, monospace" font-size="11" fill="#FFFFFF" opacity="0.9">abcdefghijklmnopqrstuvwxyz</text><text x="552.0" y="1048" font-family="DejaVu Sans Mono, Courier New, monospace" font-size="11" fill="#FFFFFF" opacity="0.9">0123456789</text><rect x="40" y="1100" width="580" height="290" rx="12" fill="#241516" stroke="#3A2326" stroke-width="0.5"/><circle cx="63" cy="1126" r="3" fill="#D4A574"/><text x="74" y="1130" font-family="DejaVu Sans, Helvetica, Arial, sans-serif" font-size="10" font-weight="600" fill="#A89690" letter-spacing="2.4">ICONOGRAPHY STYLE</text><rect x="60.0" y="1156" width="129.0" height="96" rx="8" fill="#2E1B1D" stroke="#3A2326" stroke-width="0.5"/><g transform="translate(104.1,1174) scale(1.7)"><path d="M 12 22 L 12 4 M 6 10 L 12 4 L 18 10" stroke="#D4A574" stroke-width="1.4" fill="none" stroke-linecap="round" stroke-linejoin="round"/></g><text x="124.5" y="1238" font-family="DejaVu Sans Mono, Courier New, monospace" font-size="8" fill="#A89690" text-anchor="middle" letter-spacing="1.5">LAUNCH</text><rect x="197.0" y="1156" width="129.0" height="96" rx="8" fill="#2E1B1D" stroke="#3A2326" stroke-width="0.5"/><g transform="translate(241.1,1174) scale(1.7)"><path d="M 3 20 L 9 13 L 13 16 L 21 6" stroke="#D4A574" stroke-width="1.4" fill="none" stroke-linecap="round" stroke-linejoin="round"/></g><text x="261.5" y="1238" font-family="DejaVu Sans Mono, Courier New, monospace" font-size="8" fill="#A89690" text-anchor="middle" letter-spacing="1.5">GROWTH</text><rect x="334.0" y="1156" width="129.0" height="96" rx="8" fill="#2E1B1D" stroke="#3A2326" stroke-width="0.5"/><g transform="translate(378.1,1174) scale(1.7)"><path d="M 5 22 L 5 16 M 12 22 L 12 11 M 19 22 L 19 6" stroke="#D4A574" stroke-width="1.4" fill="none" stroke-linecap="round" stroke-linejoin="round"/></g><text x="398.5" y="1238" font-family="DejaVu Sans Mono, Courier New, monospace" font-size="8" fill="#A89690" text-anchor="middle" letter-spacing="1.5">METRICS</text><rect x="471.0" y="1156" width="129.0" height="96" rx="8" fill="#2E1B1D" stroke="#3A2326" stroke-width="0.5"/><g transform="translate(515.1,1174) scale(1.7)"><path d="M 12 3 A 9 9 0 1 0 12 21 A 9 9 0 1 0 12 3 Z M 7.5 12 L 11 15.5 L 16.5 9.5" stroke="#D4A574" stroke-width="1.4" fill="none" stroke-linecap="round" stroke-linejoin="round"/></g><text x="535.5" y="1238" font-family="DejaVu Sans Mono, Courier New, monospace" font-size="8" fill="#A89690" text-anchor="middle" letter-spacing="1.5">VERIFIED</text><rect x="60.0" y="1260" width="129.0" height="96" rx="8" fill="#2E1B1D" stroke="#3A2326" stroke-width="0.5"/><g transform="translate(104.1,1278) scale(1.7)"><path d="M 12 3 A 9 9 0 1 0 12 21 A 9 9 0 1 0 12 3 Z M 12 7 L 12 12 L 16 14" stroke="#D4A574" stroke-width="1.4" fill="none" stroke-linecap="round" stroke-linejoin="round"/></g><text x="124.5" y="1342" font-family="DejaVu Sans Mono, Courier New, monospace" font-size="8" fill="#A89690" text-anchor="middle" letter-spacing="1.5">TIME</text><rect x="197.0" y="1260" width="129.0" height="96" rx="8" fill="#2E1B1D" stroke="#3A2326" stroke-width="0.5"/><g transform="translate(241.1,1278) scale(1.7)"><path d="M 12 10 A 3.5 3.5 0 1 0 12 17 A 3.5 3.5 0 1 0 12 10 Z M 5 22 C 5 18 9 17 12 17 C 15 17 19 18 19 22" stroke="#D4A574" stroke-width="1.4" fill="none" stroke-linecap="round" stroke-linejoin="round"/></g><text x="261.5" y="1342" font-family="DejaVu Sans Mono, Courier New, monospace" font-size="8" fill="#A89690" text-anchor="middle" letter-spacing="1.5">USERS</text><rect x="334.0" y="1260" width="129.0" height="96" rx="8" fill="#2E1B1D" stroke="#3A2326" stroke-width="0.5"/><g transform="translate(378.1,1278) scale(1.7)"><path d="M 3 7 L 21 7 L 21 19 L 3 19 Z M 3 11 L 21 11" stroke="#D4A574" stroke-width="1.4" fill="none" stroke-linecap="round" stroke-linejoin="round"/></g><text x="398.5" y="1342" font-family="DejaVu Sans Mono, Courier New, monospace" font-size="8" fill="#A89690" text-anchor="middle" letter-spacing="1.5">PAYMENTS</text><rect x="471.0" y="1260" width="129.0" height="96" rx="8" fill="#2E1B1D" stroke="#3A2326" stroke-width="0.5"/><g transform="translate(515.1,1278) scale(1.7)"><path d="M 12 3 A 9 9 0 1 0 12 21 A 9 9 0 1 0 12 3 Z M 3 12 L 21 12 M 12 3 C 8 8 8 16 12 21 M 12 3 C 16 8 16 16 12 21" stroke="#D4A574" stroke-width="1.4" fill="none" stroke-linecap="round" stroke-linejoin="round"/></g><text x="535.5" y="1342" font-family="DejaVu Sans Mono, Courier New, monospace" font-size="8" fill="#A89690" text-anchor="middle" letter-spacing="1.5">GLOBAL</text><text x="60" y="1372" font-family="DejaVu Sans, Helvetica, Arial, sans-serif" font-size="11" fill="#A89690">1.4px stroke · rounded caps &amp; joins · 24×24 grid</text><rect x="640" y="1100" width="400" height="175" rx="12" fill="#241516" stroke="#3A2326" stroke-width="0.5"/><circle cx="663" cy="1126" r="3" fill="#D4A574"/><text x="674" y="1130" font-family="DejaVu Sans, Helvetica, Arial, sans-serif" font-size="10" font-weight="600" fill="#A89690" letter-spacing="2.4">LOGO APPLICATIONS</text><rect x="660.0" y="1156" width="84.0" height="85" rx="8" fill="#663333" stroke="#3A2326" stroke-width="0.5"/><g transform="translate(674.0,1161.7) scale(0.56)"><polygon points="50,5 96,90 4,90" fill="#FFFFFF"/><path d="M 25 78 L 50 25 L 75 78 C 67 73 60 76 50 78 C 40 80 33 74 25 78 Z" fill="#663333"/><rect x="14" y="100" width="72" height="6" fill="#D4A574"/></g><text x="702.0" y="1229" font-family="DejaVu Sans Mono, Courier New, monospace" font-size="8" fill="#FFFFFF" opacity="0.7" text-anchor="middle" letter-spacing="1.5">BURGUNDY</text><rect x="752.0" y="1156" width="84.0" height="85" rx="8" fill="#F4ECD8" stroke="#3A2326" stroke-width="0.5"/><g transform="translate(766.0,1161.7) scale(0.56)"><polygon points="50,5 96,90 4,90" fill="#663333"/><path d="M 25 78 L 50 25 L 75 78 C 67 73 60 76 50 78 C 40 80 33 74 25 78 Z" fill="#F4ECD8"/><rect x="14" y="100" width="72" height="6" fill="#D4A574"/></g><text x="794.0" y="1229" font-family="DejaVu Sans Mono, Courier New, monospace" font-size="8" fill="#663333" opacity="0.7" text-anchor="middle" letter-spacing="1.5">CREAM</text><rect x="844.0" y="1156" width="84.0" height="85" rx="8" fill="#1A1414" stroke="#3A2326" stroke-width="0.5"/><g transform="translate(858.0,1161.7) scale(0.56)"><polygon points="50,5 96,90 4,90" fill="#FFFFFF"/><path d="M 25 78 L 50 25 L 75 78 C 67 73 60 76 50 78 C 40 80 33 74 25 78 Z" fill="#663333"/><rect x="14" y="100" width="72" height="6" fill="#D4A574"/></g><text x="886.0" y="1229" font-family="DejaVu Sans Mono, Courier New, monospace" font-size="8" fill="#D4A574" opacity="0.7" text-anchor="middle" letter-spacing="1.5">CHARCOAL</text><rect x="936.0" y="1156" width="84.0" height="85" rx="8" fill="#FFFFFF" stroke="#3A2326" stroke-width="0.5"/><g transform="translate(950.0,1161.7) scale(0.56)"><polygon points="50,5 96,90 4,90" fill="#663333"/><path d="M 25 78 L 50 25 L 75 78 C 67 73 60 76 50 78 C 40 80 33 74 25 78 Z" fill="#F4ECD8"/><rect x="14" y="100" width="72" height="6" fill="#D4A574"/></g><text x="978.0" y="1229" font-family="DejaVu Sans Mono, Courier New, monospace" font-size="8" fill="#663333" opacity="0.7" text-anchor="middle" letter-spacing="1.5">WHITE</text><rect x="640" y="1285" width="400" height="105" rx="12" fill="#241516" stroke="#3A2326" stroke-width="0.5"/><circle cx="663" cy="1311" r="3" fill="#D4A574"/><text x="674" y="1315" font-family="DejaVu Sans, Helvetica, Arial, sans-serif" font-size="10" font-weight="600" fill="#A89690" letter-spacing="2.4">BUTTON STYLES</text><rect x="660" y="1331" width="150" height="32" rx="6" fill="#663333"/><text x="735.0" y="1352" font-family="DejaVu Sans, Helvetica, Arial, sans-serif" font-size="13" font-weight="700" fill="#FFFFFF" text-anchor="middle">Get Started</text><rect x="822" y="1331" width="150" height="32" rx="6" fill="none" stroke="#D4A574" stroke-width="1.2"/><text x="897.0" y="1352" font-family="DejaVu Sans, Helvetica, Arial, sans-serif" font-size="13" font-weight="700" fill="#D4A574" text-anchor="middle">Learn More</text><text x="660" y="1381" font-family="DejaVu Sans, Helvetica, Arial, sans-serif" font-size="10" fill="#A89690">6px radius · Jakarta Sans Bold 13px · 32px padding</text><text x="40" y="1418" font-family="DejaVu Sans Mono, Courier New, monospace" font-size="9" fill="#7A6862" letter-spacing="2">LAUNCHRISE — BRAND GUIDELINES V1.0 — CONFIDENTIAL</text><text x="1040" y="1418" font-family="DejaVu Sans Mono, Courier New, monospace" font-size="9" fill="#7A6862" letter-spacing="2" text-anchor="end">LAUNCHRISE.AI</text></svg>